<?xml version="1.0" encoding="UTF-8"?>
<svg xmlns="http://www.w3.org/2000/svg" xmlns:xlink="http://www.w3.org/1999/xlink" width="145pt" height="97pt" viewBox="0 0 145 97" version="1.1">
<g id="surface1">
<path style=" stroke:none;fill-rule:nonzero;fill:rgb(64.705882%,16.862745%,0%);fill-opacity:1;" d="M 121.96875 60.523438 L 120.511719 57.492188 C 120.519531 57.375 120.523438 57.261719 120.523438 57.144531 C 120.523438 53.707031 116.960938 50.539062 110.96875 48.003906 L 110.96875 50.113281 C 110.386719 49.878906 109.777344 49.652344 109.144531 49.433594 L 109.144531 48.453125 C 100.578125 45.351562 87.832031 43.386719 73.589844 43.386719 C 61.144531 43.386719 49.839844 44.886719 41.472656 47.332031 L 41.472656 50.757812 L 41.472656 46.613281 C 32.898438 49.347656 27.582031 53.144531 27.582031 57.34375 C 27.582031 58.007812 27.714844 58.660156 27.972656 59.300781 L 27.097656 60.859375 C 27.097656 60.859375 26.398438 61.769531 27.628906 63.691406 C 28.714844 65.386719 34.160156 72.019531 37.035156 75.492188 C 38.269531 77.273438 39.105469 78.371094 39.179688 78.265625 C 39.292969 78.097656 38.410156 74.753906 35.960938 70.9375 C 34.816406 68.890625 33.449219 66.175781 32.628906 64.171875 C 34.917969 65.625 48.367188 72.417969 75.796875 72.390625 C 103.828125 72.363281 116.289062 63.558594 117.65625 62.359375 C 117.179688 64.285156 115.546875 68.183594 114.242188 70.925781 C 112.105469 74.84375 111.328125 78.257812 111.429688 78.425781 C 111.492188 78.53125 112.222656 77.402344 113.296875 75.570312 C 115.804688 71.988281 120.550781 65.152344 121.5 63.410156 C 122.574219 61.4375 121.96875 60.523438 121.96875 60.523438 "/>
<path style=" stroke:none;fill-rule:nonzero;fill:rgb(96.862745%,29.803922%,0%);fill-opacity:1;" d="M 130.4375 60.507812 L 120.851562 53.417969 C 120.761719 53.105469 120.671875 52.789062 120.578125 52.476562 L 123.726562 47.898438 C 124.046875 47.433594 124.113281 46.828125 123.90625 46.296875 C 123.695312 45.769531 123.238281 45.390625 122.699219 45.296875 L 117.371094 44.390625 C 117.167969 43.96875 116.949219 43.550781 116.734375 43.140625 L 118.96875 38 C 119.199219 37.476562 119.152344 36.867188 118.847656 36.390625 C 118.542969 35.914062 118.027344 35.636719 117.476562 35.65625 L 112.074219 35.855469 C 111.792969 35.488281 111.507812 35.125 111.21875 34.769531 L 112.460938 29.261719 C 112.585938 28.703125 112.425781 28.117188 112.039062 27.710938 C 111.652344 27.304688 111.09375 27.136719 110.558594 27.269531 L 105.296875 28.566406 C 104.953125 28.265625 104.609375 27.96875 104.257812 27.675781 L 104.445312 22.019531 C 104.46875 21.449219 104.199219 20.902344 103.746094 20.585938 C 103.289062 20.265625 102.707031 20.21875 102.210938 20.457031 L 97.300781 22.796875 C 96.902344 22.570312 96.507812 22.34375 96.105469 22.125 L 95.238281 16.554688 C 95.148438 15.988281 94.785156 15.511719 94.28125 15.289062 C 93.773438 15.070312 93.195312 15.140625 92.75 15.476562 L 88.375 18.773438 C 87.941406 18.628906 87.507812 18.492188 87.070312 18.359375 L 85.183594 13.074219 C 84.992188 12.535156 84.550781 12.140625 84.007812 12.03125 C 83.472656 11.917969 82.917969 12.105469 82.546875 12.523438 L 78.859375 16.660156 C 78.414062 16.609375 77.96875 16.5625 77.523438 16.523438 L 74.675781 11.714844 C 74.386719 11.226562 73.878906 10.929688 73.332031 10.929688 C 72.785156 10.929688 72.273438 11.226562 71.988281 11.714844 L 69.140625 16.523438 C 68.695312 16.5625 68.246094 16.609375 67.800781 16.660156 L 64.117188 12.523438 C 63.742188 12.105469 63.1875 11.917969 62.652344 12.03125 C 62.113281 12.144531 61.667969 12.535156 61.476562 13.074219 L 59.589844 18.359375 C 59.152344 18.492188 58.71875 18.628906 58.289062 18.773438 L 53.910156 15.476562 C 53.464844 15.140625 52.886719 15.070312 52.378906 15.289062 C 51.875 15.511719 51.511719 15.988281 51.421875 16.554688 L 50.554688 22.125 C 50.152344 22.34375 49.757812 22.570312 49.359375 22.796875 L 44.449219 20.457031 C 43.953125 20.21875 43.367188 20.265625 42.914062 20.585938 C 42.457031 20.902344 42.191406 21.449219 42.210938 22.019531 L 42.402344 27.675781 C 42.050781 27.96875 41.707031 28.265625 41.363281 28.566406 L 36.101562 27.269531 C 35.566406 27.140625 35.003906 27.304688 34.617188 27.710938 C 34.230469 28.117188 34.070312 28.703125 34.195312 29.261719 L 35.4375 34.769531 C 35.148438 35.128906 34.863281 35.488281 34.585938 35.855469 L 29.179688 35.65625 C 28.636719 35.640625 28.117188 35.914062 27.808594 36.390625 C 27.503906 36.867188 27.457031 37.476562 27.6875 38 L 29.925781 43.140625 C 29.707031 43.550781 29.492188 43.96875 29.285156 44.390625 L 23.960938 45.296875 C 23.417969 45.386719 22.960938 45.765625 22.75 46.296875 C 22.542969 46.828125 22.609375 47.433594 22.929688 47.898438 L 26.078125 52.476562 C 26.054688 52.558594 26.03125 52.636719 26.007812 52.71875 L 17.101562 62.210938 C 17.101562 62.210938 15.738281 63.285156 17.726562 65.808594 C 19.476562 68.03125 28.472656 76.851562 33.226562 81.472656 C 35.230469 83.820312 36.605469 85.273438 36.75 85.144531 C 36.976562 84.945312 35.785156 80.679688 31.835938 75.671875 C 28.785156 71.179688 24.832031 64.265625 25.761719 63.472656 C 25.761719 63.472656 26.816406 62.128906 28.929688 61.160156 C 29.007812 61.222656 28.851562 61.097656 28.929688 61.160156 C 28.929688 61.160156 73.589844 81.832031 115.015625 61.511719 C 119.75 60.65625 122.613281 63.203125 122.613281 63.203125 C 123.601562 63.777344 121.042969 70.882812 118.9375 75.585938 C 116.078125 80.925781 115.660156 85.09375 115.902344 85.238281 C 116.054688 85.332031 117.09375 83.742188 118.578125 81.210938 C 122.246094 76.089844 129.171875 66.320312 130.4375 63.949219 C 131.875 61.261719 130.4375 60.507812 130.4375 60.507812 "/>
<path style=" stroke:none;fill-rule:nonzero;fill:rgb(96.862745%,29.803922%,0%);fill-opacity:1;" d="M 110.914062 57.855469 C 110.914062 57.855469 117.339844 57.554688 125.777344 48.945312 L 126.976562 46.28125 C 126.976562 46.28125 113.875 33.203125 134.238281 24.179688 C 134.238281 24.179688 132.457031 27.101562 132.980469 38.398438 C 132.980469 38.398438 139.121094 36.257812 140.917969 26.28125 C 140.917969 26.28125 149.875 38.128906 131.191406 49.242188 C 131.191406 49.242188 122.425781 63.34375 110.070312 61.992188 Z M 110.914062 57.855469 "/>
<path style=" stroke:none;fill-rule:nonzero;fill:rgb(0%,0%,0%);fill-opacity:1;" d="M 81.804688 49.734375 C 81.804688 49.734375 86.265625 44.828125 90.730469 49.734375 C 90.730469 49.734375 94.238281 56.273438 90.730469 59.539062 C 90.730469 59.539062 84.992188 64.117188 81.804688 59.539062 C 81.804688 59.539062 77.976562 55.945312 81.804688 49.734375 "/>
<path style=" stroke:none;fill-rule:nonzero;fill:rgb(100%,100%,100%);fill-opacity:1;" d="M 86.972656 51.550781 C 86.972656 53.460938 85.847656 55.007812 84.464844 55.007812 C 83.082031 55.007812 81.960938 53.460938 81.960938 51.550781 C 81.960938 49.640625 83.082031 48.09375 84.464844 48.09375 C 85.847656 48.09375 86.972656 49.640625 86.972656 51.550781 "/>
<path style=" stroke:none;fill-rule:nonzero;fill:rgb(0%,0%,0%);fill-opacity:1;" d="M 61.882812 48.394531 C 61.882812 48.394531 69.539062 44.992188 71.628906 52.585938 C 71.628906 52.585938 73.816406 61.433594 65.34375 61.933594 C 65.34375 61.933594 54.535156 59.84375 61.882812 48.394531 "/>
<path style=" stroke:none;fill-rule:nonzero;fill:rgb(100%,100%,100%);fill-opacity:1;" d="M 65.730469 51.675781 C 65.730469 53.644531 64.574219 55.242188 63.144531 55.242188 C 61.71875 55.242188 60.5625 53.644531 60.5625 51.675781 C 60.5625 49.707031 61.71875 48.113281 63.144531 48.113281 C 64.574219 48.113281 65.730469 49.707031 65.730469 51.675781 "/>
<path style=" stroke:none;fill-rule:nonzero;fill:rgb(0%,0%,0%);fill-opacity:1;" d="M 71.691406 65.027344 L 81.457031 64.242188 C 81.457031 64.242188 81.125 65.816406 79.851562 67 C 79.851562 67 76.492188 70.695312 72.640625 66.695312 C 72.640625 66.695312 72.011719 66.011719 71.691406 65.027344 "/>
<path style=" stroke:none;fill-rule:nonzero;fill:rgb(96.862745%,29.803922%,0%);fill-opacity:1;" d="M 32.601562 55.960938 C 32.519531 55.960938 32.441406 55.964844 32.363281 55.972656 C 29.191406 55.246094 20.28125 52.917969 17.925781 49.136719 C 17.925781 49.136719 29.917969 35.453125 11.175781 26.703125 L 13.359375 41.84375 C 13.359375 41.84375 7.582031 37.972656 6.335938 29.558594 C 6.335938 29.558594 -7.734375 39.800781 12.542969 49.621094 C 12.542969 49.621094 14.382812 56.554688 32.039062 62.085938 L 32.054688 62.035156 C 32.230469 62.066406 32.414062 62.085938 32.601562 62.085938 C 34.269531 62.085938 35.621094 60.714844 35.621094 59.023438 C 35.621094 57.332031 34.269531 55.960938 32.601562 55.960938 "/>
</g>
</svg>
